HIERARCHY
ROOT Hips
{
	OFFSET 0.00000 0.00000 0.00000
	CHANNELS 6 Xposition Yposition Zposition Zrotation Yrotation Xrotation 
	JOINT LHipJoint
	{
		OFFSET 0 0 0
		CHANNELS 3 Zrotation Yrotation Xrotation
		JOINT LeftUpLeg
		{
			OFFSET 1.28858 -1.83292 1.03970
			CHANNELS 3 Zrotation Yrotation Xrotation
			JOINT LeftLeg
			{
				OFFSET 2.47846 -6.80952 0.00000
				CHANNELS 3 Zrotation Yrotation Xrotation
				JOINT LeftFoot
				{
					OFFSET 2.75274 -7.56311 0.00000
					CHANNELS 3 Zrotation Yrotation Xrotation
					JOINT LeftToeBase
					{
						OFFSET 0.12848 -0.35301 1.68223
						CHANNELS 3 Zrotation Yrotation Xrotation
						End Site
						{
							OFFSET 0.00000 -0.00000 0.87311
						}
					}
				}
			}
		}
	}
	JOINT RHipJoint
	{
		OFFSET 0 0 0
		CHANNELS 3 Zrotation Yrotation Xrotation
		JOINT RightUpLeg
		{
			OFFSET -1.31183 -1.83292 1.03970
			CHANNELS 3 Zrotation Yrotation Xrotation
			JOINT RightLeg
			{
				OFFSET -2.44740 -6.72417 0.00000
				CHANNELS 3 Zrotation Yrotation Xrotation
				JOINT RightFoot
				{
					OFFSET -2.67343 -7.34519 0.00000
					CHANNELS 3 Zrotation Yrotation Xrotation
					JOINT RightToeBase
					{
						OFFSET -0.16914 -0.46471 1.77626
						CHANNELS 3 Zrotation Yrotation Xrotation
						End Site
						{
							OFFSET -0.00000 -0.00000 0.92777
						}
					}
				}
			}
		}
	}
	JOINT LowerBack
	{
		OFFSET 0 0 0
		CHANNELS 3 Zrotation Yrotation Xrotation
		JOINT Spine
		{
			OFFSET 0.01249 2.14252 0.03842
			CHANNELS 3 Zrotation Yrotation Xrotation
			JOINT Spine1
			{
				OFFSET -0.02957 2.14199 -0.03751
				CHANNELS 3 Zrotation Yrotation Xrotation
				JOINT Neck
				{
					OFFSET 0 0 0
					CHANNELS 3 Zrotation Yrotation Xrotation
					JOINT Neck1
					{
						OFFSET -0.01678 1.65709 -0.05476
						CHANNELS 3 Zrotation Yrotation Xrotation
						JOINT Head
						{
							OFFSET 0.07912 1.58331 -0.11843
							CHANNELS 3 Zrotation Yrotation Xrotation
							End Site
							{
								OFFSET 0.03298 1.73940 -0.04271
							}
						}
					}
				}
				JOINT LeftShoulder
				{
					OFFSET 0 0 0
					CHANNELS 3 Zrotation Yrotation Xrotation
					JOINT LeftArm
					{
						OFFSET 3.39556 1.16496 0.08673
						CHANNELS 3 Zrotation Yrotation Xrotation
						JOINT LeftForeArm
						{
							OFFSET 5.23910 -0.00000 -0.00000
							CHANNELS 3 Zrotation Yrotation Xrotation
							JOINT LeftHand
							{
								OFFSET 3.31467 -0.00000 0.00000
								CHANNELS 3 Zrotation Yrotation Xrotation
								JOINT LeftFingerBase
								{
									OFFSET 0 0 0
									CHANNELS 3 Zrotation Yrotation Xrotation
									JOINT LeftHandIndex1
									{
										OFFSET 0.96590 -0.00000 0.00000
										CHANNELS 3 Zrotation Yrotation Xrotation
										End Site
										{
											OFFSET 0.77873 -0.00000 0.00000
										}
									}
								}
								JOINT LThumb
								{
									OFFSET 0 0 0
									CHANNELS 3 Zrotation Yrotation Xrotation
									End Site
									{
										OFFSET 0.79062 -0.00000 0.79062
									}
								}
							}
						}
					}
				}
				JOINT RightShoulder
				{
					OFFSET 0 0 0
					CHANNELS 3 Zrotation Yrotation Xrotation
					JOINT RightArm
					{
						OFFSET -3.27193 1.31331 0.33940
						CHANNELS 3 Zrotation Yrotation Xrotation
						JOINT RightForeArm
						{
							OFFSET -5.30252 -0.00000 0.00000
							CHANNELS 3 Zrotation Yrotation Xrotation
							JOINT RightHand
							{
								OFFSET -3.67875 -0.00000 0.00000
								CHANNELS 3 Zrotation Yrotation Xrotation
								JOINT RightFingerBase
								{
									OFFSET 0 0 0
									CHANNELS 3 Zrotation Yrotation Xrotation
									JOINT RightHandIndex1
									{
										OFFSET -0.59481 -0.00000 0.00000
										CHANNELS 3 Zrotation Yrotation Xrotation
										End Site
										{
											OFFSET -0.47955 -0.00000 0.00000
										}
									}
								}
								JOINT RThumb
								{
									OFFSET 0 0 0
									CHANNELS 3 Zrotation Yrotation Xrotation
									End Site
									{
										OFFSET -0.48687 -0.00000 0.48687
									}
								}
							}
						}
					}
				}
			}
		}
	}
}
MOTION
Frames: 13
Frame Time: 0.0333333
0.00 0.00 0.00 -156.8520 -2.4963 145.7380 0.0000 0.0000 0.0000 7.7753 20.7886 -16.4903 8.4174 16.4179 54.0527 -0.7237 14.9260 -7.0300 0.9397 6.1744 17.2912 0.0000 0.0000 0.0000 -20.2915 -19.1872 -44.6304 -18.1597 -19.9186 84.6123 -1.5289 -3.4609 -24.8221 -1.0274 6.4478 -18.0893 3.5928 -8.3004 5.0561 5.8458 -12.7004 6.9060 4.0976 -6.9790 5.0972 -3.2209 -8.4485 -0.1916 -4.0216 -10.0219 16.1635 -1.1157 -5.0008 4.8597 -0.0000 0.0000 0.0000 -27.6848 -71.4859 9.8971 11.7927 -19.4930 -2.0326 -0.0000 0.0000 -10.1822 51.0308 -27.7572 -29.9314 -7.1250 0.0000 -0.0000 11.6090 -9.2238 -13.5790 -0.0000 0.0000 0.0000 -25.5166 36.5365 -40.7328 -21.6107 32.5342 -6.3752 0.0000 -0.0000 -25.2750 -24.1709 -35.0780 14.4628 7.1250 -0.0000 -0.0000 12.3693 -67.1807 -6.6456
0.00 0.00 0.00 -160.5990 29.9059 141.7120 0.0000 0.0000 0.0000 28.4519 13.6010 -42.8071 4.7388 13.0834 39.6816 0.4734 8.7322 -18.9947 0.7192 5.4193 15.1086 0.0000 0.0000 0.0000 -4.6224 -20.9128 -32.8771 -17.3186 -19.8267 82.1384 -1.3544 0.1686 -21.9623 -0.9668 6.2603 -17.5417 5.1547 -8.1343 16.0456 3.7344 -8.0287 13.6928 2.1321 -2.7600 5.6768 -2.0611 -9.5877 0.2254 -7.4662 -10.4185 22.9403 -2.5599 -5.2392 6.6638 -0.0000 0.0000 0.0000 -2.2560 -64.7139 -26.2467 9.3400 -15.7006 -1.2906 -0.0000 -0.0000 0.0684 59.9959 -30.1117 -40.9842 -7.1250 0.0000 -0.0000 15.5464 -17.7377 -20.1536 -0.0000 0.0000 0.0000 -14.5268 62.7239 -53.6998 -12.7856 20.9723 -2.3760 0.0000 -0.0000 -25.3458 -25.1707 -40.6669 17.0268 7.1250 -0.0000 -0.0000 18.1271 -72.7948 -12.0628
0.00 0.00 0.00 -166.1770 40.7070 137.7350 0.0000 0.0000 0.0000 35.4510 15.7528 -50.8000 1.7351 8.2909 23.6012 1.6134 8.7156 -28.5191 1.7575 8.3416 23.7566 0.0000 0.0000 0.0000 -5.7259 -23.3569 -26.3467 -16.9311 -19.7727 80.9944 -1.2892 -1.6128 -22.0901 -1.1379 6.7744 -19.0487 3.8594 -5.9297 18.4823 2.1683 -4.9879 15.4611 0.9411 -1.1804 6.3702 -7.4185 -3.6289 -1.0125 -1.2792 -2.5193 25.5897 0.7390 -1.3720 8.2248 -0.0000 0.0000 0.0000 5.9724 -59.1088 -37.3074 10.0801 -16.8648 -1.4981 -0.0000 0.0000 -3.7586 63.8800 -29.8778 -45.4535 -7.1250 0.0000 -0.0000 17.6468 -20.5360 -23.5888 -0.0000 0.0000 0.0000 -16.7363 71.4818 -63.4797 -10.3915 17.3496 -1.5897 0.0000 -0.0000 -29.9163 -30.9358 -45.2411 23.0534 7.1250 -0.0000 -0.0000 19.5317 -79.0334 -15.5474
0.00 0.00 0.00 -173.0470 47.9430 131.3740 0.0000 0.0000 0.0000 42.1687 14.0133 -53.1222 0.3899 4.0094 11.1031 2.7853 14.3830 -39.1008 1.4762 7.6771 21.7374 0.0000 0.0000 0.0000 -9.4599 -23.7949 -20.4105 -16.2625 -19.6617 79.0127 -1.6058 -1.3396 -24.4687 -0.2486 3.2081 -8.8588 2.5301 -4.0058 20.8413 0.7940 -2.3043 16.7334 -0.0769 0.2443 6.6839 -6.5796 -5.1117 -2.6634 -3.8867 -4.1327 25.4577 -0.4455 -2.3822 8.4552 -0.0000 0.0000 0.0000 9.9850 -54.1226 -41.4044 11.9257 -19.6932 -2.0772 -0.0000 0.0000 -11.0876 64.8190 -29.1003 -45.9692 -7.1250 0.0000 -0.0000 18.4158 -20.4252 -24.6838 -0.0000 0.0000 0.0000 -23.6419 76.0543 -72.5066 -9.4953 15.9463 -1.3329 0.0000 -0.0000 -29.5462 -26.4077 -49.6600 20.7314 7.1250 -0.0000 -0.0000 43.5457 -80.2535 -36.3861
0.00 0.00 0.00 -202.7630 62.5556 101.3890 0.0000 0.0000 0.0000 51.4943 14.8684 -63.2836 0.1686 2.6455 7.2932 6.9277 15.7901 -55.8331 2.1829 9.2372 26.5400 0.0000 0.0000 0.0000 -13.9093 -13.6386 -10.5464 -13.5196 -18.9618 70.7320 -1.4167 -3.3328 -23.8994 -0.2288 3.0785 -8.4975 1.1398 0.2376 26.9268 -1.0924 3.7102 19.1390 -2.3957 3.6286 6.9812 -8.0127 -6.6115 -2.2518 -6.7767 -6.5363 17.8229 -1.1808 -3.8661 5.8717 0.0000 -0.0000 0.0000 12.4696 -40.6151 -46.0500 12.4440 -20.4671 -2.2551 -0.0000 0.0000 -19.0900 67.2999 -28.1460 -48.4340 -7.1250 0.0000 -0.0000 20.0766 -21.5661 -27.3379 0.0000 -0.0000 0.0000 -57.0321 79.5118 -89.6729 -14.6476 23.6529 -3.0832 0.0000 -0.0000 -44.7766 -29.6696 -52.0426 24.1886 7.1250 -0.0000 -0.0000 56.5116 -82.7711 -50.2432
0.00 0.00 0.00 -232.3700 66.4250 71.6685 0.0000 0.0000 0.0000 29.9328 22.7192 -88.1057 1.5545 7.8689 22.3167 2.7054 10.0974 -35.8830 0.8217 5.7837 16.1581 0.0000 0.0000 0.0000 -13.5088 -7.1081 -6.7386 -11.1693 -18.0170 63.3303 -0.9246 -7.0568 -22.0372 -0.0037 -0.3944 1.0836 2.5564 1.7381 28.3192 -1.7474 5.9437 20.1936 -4.1514 5.0077 7.5032 -9.7816 -6.9556 -1.4654 -9.4075 -6.7606 15.2995 -1.6480 -4.0905 4.9481 -0.0000 0.0000 0.0000 7.5653 -30.5520 -41.6351 11.5559 -19.1352 -1.9543 -0.0000 0.0000 -22.2524 68.8201 -26.7077 -49.2348 -7.1250 0.0000 -0.0000 21.3962 -21.3325 -29.2934 -0.0000 0.0000 0.0000 -83.9679 79.6902 -108.7313 -20.2907 30.9910 -5.6803 0.0000 -0.0000 -49.3459 -27.1080 -51.7728 21.9066 7.1250 -0.0000 -0.0000 55.1419 -81.5346 -47.8574
0.00 0.00 0.00 -274.6390 58.2483 30.4048 0.0000 0.0000 0.0000 23.1635 16.1269 -102.3500 4.7711 13.1213 39.8242 1.8657 3.2676 -27.1448 0.6269 5.0665 14.0982 0.0000 0.0000 0.0000 -15.2212 -3.7740 -5.6423 -7.5703 -15.7939 50.9998 -0.5011 -16.0747 -27.1066 -1.9902 -8.8457 25.3138 3.3361 3.3971 28.5352 -1.8275 7.4943 19.8707 -4.9982 5.5922 7.3186 -12.0288 -6.8469 -2.4134 -17.3290 -4.5928 16.1513 -3.7498 -3.5104 5.3481 0.0000 0.0000 0.0000 -9.7734 -8.7098 -23.0076 10.0137 -16.7610 -1.4789 -0.0000 0.0000 -19.2530 65.4581 -23.9695 -41.6599 -7.1250 0.0000 -0.0000 20.4274 -14.4762 -26.3618 0.0000 0.0000 0.0000 -125.1680 77.4964 -137.5054 -36.0558 45.5515 -15.5623 0.0000 -0.0000 -53.4818 -37.3522 -49.3622 30.0783 7.1250 -0.0000 -0.0000 27.6020 -85.1465 -25.2692
0.00 0.00 0.00 -296.4490 40.8964 11.4981 0.0000 0.0000 0.0000 19.4630 9.7985 -103.4517 6.4854 14.8828 46.8999 1.5690 -3.0588 -22.8938 1.3561 7.3716 20.8209 0.0000 0.0000 0.0000 -15.5705 -10.3576 -11.7736 -5.1589 -13.5606 41.5049 -2.2509 -18.6824 -39.8841 -3.8309 -11.9319 35.4914 4.0009 4.9325 27.2012 -1.4385 8.5036 17.4239 -5.5053 5.5845 5.6617 -11.4619 -5.8076 -2.3095 -20.2616 -3.6462 13.1769 -4.6181 -2.9300 4.3347 0.0000 0.0000 0.0000 -27.7672 18.1567 -1.9063 6.3061 -10.7718 -0.5951 -0.0000 0.0000 -7.5730 61.5777 -23.1953 -36.0457 -7.1250 0.0000 -0.0000 18.6004 -10.1234 -22.6982 0.0000 0.0000 0.0000 -128.6871 73.1308 -131.2936 -55.5032 54.9875 -30.6277 0.0000 -0.0000 -29.8727 -41.2253 -42.4691 30.6092 7.1250 -0.0000 -0.0000 -10.4071 -80.4276 8.5431
0.00 0.00 0.00 -308.6580 21.0147 3.1042 0.0000 0.0000 0.0000 13.6071 6.9922 -97.2794 6.3218 14.7331 46.2600 1.6087 -5.7023 -22.8111 1.2396 7.0600 19.8934 0.0000 0.0000 0.0000 -11.7000 -17.2445 -18.7993 -3.9733 -12.1248 36.1750 -2.4273 -20.8203 -42.5032 -4.1142 -12.3109 36.8408 8.0896 6.4869 23.7307 -0.7438 10.4714 15.4438 -6.9878 6.4785 5.8974 -6.9437 -6.9569 0.2847 -19.8080 -7.1571 9.9932 -5.0281 -4.1978 2.4646 -0.0000 0.0000 0.0000 -52.4822 40.6431 14.0344 2.6555 -4.5879 -0.1064 -0.0000 0.0000 -10.6631 60.0991 -20.7881 -31.6824 -7.1250 0.0000 -0.0000 18.5228 -5.6387 -21.3508 -0.0000 0.0000 0.0000 -107.1882 68.9461 -113.1054 -59.7332 56.2384 -34.1192 0.0000 -0.0000 -0.3261 -44.1558 -41.0150 32.5052 7.1250 -0.0000 -0.0000 -20.4141 -79.8874 16.6047
0.00 0.00 0.00 -313.6510 -3.2480 -0.2181 0.0000 0.0000 0.0000 7.7725 -3.8829 -83.1682 5.0124 13.3977 40.8762 0.6724 -9.0129 -14.9929 0.7681 -5.5965 -15.6181 0.0000 0.0000 0.0000 -16.9898 -13.9108 -18.1203 -1.3866 -7.4506 21.0573 -3.2260 -22.8758 -47.4095 -3.6493 -11.6785 34.6039 12.6853 5.7238 21.5420 -1.0143 9.7179 12.0617 -9.7084 5.8903 3.9167 -1.4761 -8.6627 -1.7727 -19.7568 -10.2479 8.8369 -5.9005 -5.7463 1.9078 -0.0000 -0.0000 0.0000 -100.6698 50.0147 23.4549 4.7979 -8.2431 -0.3459 -0.0000 0.0000 -23.2281 46.4396 -20.9510 -20.6065 -7.1250 0.0000 -0.0000 10.8699 1.3753 -10.8035 -0.0000 -0.0000 0.0000 -83.3679 65.6615 -98.6068 -43.9203 50.2285 -21.4057 0.0000 -0.0000 -17.2036 -37.5010 -42.6652 27.4765 7.1250 -0.0000 -0.0000 -0.1021 -79.2584 0.0813
0.00 0.00 0.00 -313.4770 -10.6510 -0.9566 0.0000 0.0000 0.0000 4.9822 -8.7939 -79.7236 4.5095 12.8091 38.6582 -0.1291 -13.7653 -8.0097 0.2520 -3.2301 -8.9201 0.0000 0.0000 0.0000 -18.8060 -13.0550 -17.5842 -1.1214 -6.7266 18.9080 -2.5718 -11.9201 -36.3444 -1.8608 -8.5699 24.4590 11.7977 5.6882 20.3609 -0.6593 9.3056 11.5603 -8.6911 5.4938 3.5641 -1.5362 -8.3694 -2.3329 -18.1829 -10.2720 6.9141 -5.3733 -5.6649 1.5287 -0.0000 -0.0000 0.0000 -102.6017 45.2663 30.3884 7.3003 -12.4123 -0.7949 -0.0000 0.0000 -18.5734 45.2028 -24.1531 -22.3958 -7.1250 0.0000 -0.0000 9.3733 -2.1110 -9.8430 -0.0000 -0.0000 0.0000 -77.3579 66.8896 -94.3832 -37.9201 46.7882 -16.9073 0.0000 -0.0000 -17.2816 -38.6401 -43.4993 28.8234 7.1250 -0.0000 -0.0000 -1.5255 -80.5185 1.2534
0.00 0.00 0.00 -316.5830 -26.3301 -3.0949 0.0000 0.0000 0.0000 5.7056 -13.5903 -71.1317 2.8457 10.4410 30.4170 -0.3768 -11.3720 0.3895 0.3379 3.7353 10.3331 0.0000 0.0000 0.0000 -12.3563 -5.6616 -28.5485 -4.2492 -12.4848 37.4694 -4.6765 -0.3758 -41.2680 -1.2795 -7.1685 20.2155 16.1299 4.3591 24.6658 0.0117 8.7627 11.5347 -10.8118 5.2171 2.0434 -2.1803 -6.4016 -0.5472 -17.0421 -9.0282 -1.0475 -4.6499 -4.4790 -0.9217 -0.0000 -0.0000 0.0000 -94.5257 29.6690 26.9346 6.9833 -11.8917 -0.7282 -0.0000 0.0000 -3.7711 46.9951 -22.0985 -21.9670 -7.1250 0.0000 -0.0000 10.9103 -0.2983 -11.1710 -0.0000 -0.0000 0.0000 -77.3106 73.6381 -99.8364 -31.4329 42.0904 -12.3590 0.0000 -0.0000 -11.7074 -40.0155 -44.1988 30.3404 7.1250 -0.0000 -0.0000 -4.2094 -81.7355 3.5613
0.00 0.00 0.00 -314.1790 -40.8675 -5.7483 0.0000 0.0000 0.0000 0.0061 -19.7791 -66.5515 1.8117 8.4623 24.1272 0.1825 -5.5809 12.0081 0.9301 6.1436 17.2015 0.0000 0.0000 0.0000 -12.3545 1.4667 -39.6143 -9.2825 -16.9861 57.0620 -4.7171 2.8775 -40.6475 -0.1042 -2.0815 5.7309 14.7700 3.4705 24.9811 0.0112 6.9627 13.1416 -9.7088 4.3189 3.0205 -1.8998 -2.9547 0.4654 -16.5133 -4.9297 -4.6847 -4.5637 -2.1623 -1.8365 0.0000 -0.0000 0.0000 -83.5488 15.9342 16.0170 6.9235 -11.7933 -0.7159 -0.0000 -0.0000 5.9980 48.9047 -21.0444 -22.3770 -7.1250 0.0000 -0.0000 12.2710 0.2409 -12.5100 0.0000 -0.0000 0.0000 -72.0504 80.3924 -94.3388 -24.9163 36.1184 -8.2405 0.0000 -0.0000 -11.0484 -40.8295 -45.4277 31.6139 7.1250 -0.0000 -0.0000 -4.3553 -83.2590 3.8145
